# Blender v2.91.0 OBJ File: '0.obj'
# www.blender.org
mtllib alphabet.mtl
o A
v -0.333500 -0.000000 0.060000
v 0.028500 0.686000 0.060000
v -0.040500 0.686000 0.060000
v -0.007500 0.536000 0.060000
v 0.333500 -0.000000 0.060000
v -0.109500 0.289000 0.060000
v 0.102500 0.289000 0.060000
v -0.147500 0.201000 0.060000
v 0.142500 0.201000 0.060000
v -0.233500 -0.000000 0.060000
v 0.233500 -0.000000 0.060000
v 0.028500 0.686000 -0.060000
v -0.333500 0.000000 -0.060000
v -0.040500 0.686000 -0.060000
v -0.007500 0.536000 -0.060000
v 0.333500 0.000000 -0.060000
v -0.109500 0.289000 -0.060000
v 0.102500 0.289000 -0.060000
v -0.147500 0.201000 -0.060000
v 0.142500 0.201000 -0.060000
v -0.233500 0.000000 -0.060000
v 0.233500 0.000000 -0.060000
v 0.227050 -0.010000 -0.050000
v 0.136050 0.191000 -0.050000
v 0.142500 0.201000 -0.060000
v 0.233500 0.000000 -0.060000
v -0.140902 0.191000 -0.050000
v -0.147500 0.201000 -0.060000
v -0.226902 -0.010000 -0.050000
v -0.233500 0.000000 -0.060000
v -0.348645 -0.010000 -0.050000
v -0.333500 0.000000 -0.060000
v -0.047103 0.696000 -0.050000
v -0.040500 0.686000 -0.060000
v 0.034998 0.696000 -0.050000
v 0.028500 0.686000 -0.060000
v 0.348890 -0.010000 -0.050000
v 0.333500 0.000000 -0.060000
v 0.227050 -0.010000 0.050000
v 0.136050 0.191000 0.050000
v 0.136050 0.191000 -0.050000
v 0.227050 -0.010000 -0.050000
v -0.140902 0.191000 0.050000
v -0.140902 0.191000 -0.050000
v -0.226902 -0.010000 0.050000
v -0.226902 -0.010000 -0.050000
v -0.348645 -0.010000 0.050000
v -0.348645 -0.010000 -0.050000
v -0.047103 0.696000 0.050000
v -0.047103 0.696000 -0.050000
v 0.034998 0.696000 0.050000
v 0.034998 0.696000 -0.050000
v 0.348890 -0.010000 0.050000
v 0.348890 -0.010000 -0.050000
v 0.233500 -0.000000 0.060000
v 0.142500 0.201000 0.060000
v 0.136050 0.191000 0.050000
v 0.227050 -0.010000 0.050000
v -0.147500 0.201000 0.060000
v -0.140902 0.191000 0.050000
v -0.233500 -0.000000 0.060000
v -0.226902 -0.010000 0.050000
v -0.333500 -0.000000 0.060000
v -0.348645 -0.010000 0.050000
v -0.040500 0.686000 0.060000
v -0.047103 0.696000 0.050000
v 0.028500 0.686000 0.060000
v 0.034998 0.696000 0.050000
v 0.333500 -0.000000 0.060000
v 0.348890 -0.010000 0.050000
v 0.087100 0.299000 -0.050000
v -0.007153 0.510641 -0.050000
v -0.007500 0.536000 -0.060000
v 0.102500 0.289000 -0.060000
v -0.094551 0.299000 -0.050000
v -0.109500 0.289000 -0.060000
v 0.087100 0.299000 0.050000
v -0.007153 0.510641 0.050000
v -0.007153 0.510641 -0.050000
v 0.087100 0.299000 -0.050000
v -0.094551 0.299000 0.050000
v -0.094551 0.299000 -0.050000
v 0.102500 0.289000 0.060000
v -0.007500 0.536000 0.060000
v -0.007153 0.510641 0.050000
v 0.087100 0.299000 0.050000
v -0.109500 0.289000 0.060000
v -0.094551 0.299000 0.050000
vn 0.0000 -0.0000 1.0000
vn 0.0000 0.0000 -1.0000
vn -0.3487 -0.5407 -0.7656
vn 0.3529 -0.5349 -0.7677
vn -0.4027 -0.2659 -0.8758
vn -0.3530 0.5347 -0.7678
vn 0.3501 0.5388 -0.7663
vn 0.4012 -0.2607 -0.8781
vn -0.5420 -0.8404 -0.0000
vn 0.5507 -0.8347 -0.0000
vn -0.8345 -0.5510 -0.0000
vn -0.5510 0.8345 0.0000
vn 0.5449 0.8385 0.0000
vn 0.8385 -0.5449 -0.0000
vn -0.3487 -0.5407 0.7656
vn 0.3529 -0.5349 0.7677
vn -0.4027 -0.2659 0.8758
vn -0.3530 0.5347 0.7678
vn 0.3501 0.5388 0.7663
vn 0.4012 -0.2607 0.8781
vn -0.4011 0.2605 -0.8782
vn 0.0050 -0.3668 -0.9303
vn 0.4039 0.2702 -0.8740
vn -0.8387 0.5446 0.0000
vn 0.0137 -0.9999 0.0000
vn 0.8312 0.5560 0.0000
vn -0.4011 0.2605 0.8782
vn 0.0050 -0.3668 0.9303
vn 0.4039 0.2702 0.8740
usemtl Gold
s off
f 1//1 2//1 3//1
f 1//1 4//1 2//1
f 4//1 5//1 2//1
f 1//1 6//1 4//1
f 7//1 5//1 4//1
f 1//1 8//1 6//1
f 8//1 7//1 6//1
f 8//1 9//1 7//1
f 9//1 5//1 7//1
f 1//1 10//1 8//1
f 11//1 5//1 9//1
f 12//2 13//2 14//2
f 15//2 13//2 12//2
f 16//2 15//2 12//2
f 17//2 13//2 15//2
f 16//2 18//2 15//2
f 19//2 13//2 17//2
f 18//2 19//2 17//2
f 20//2 19//2 18//2
f 16//2 20//2 18//2
f 21//2 13//2 19//2
f 16//2 22//2 20//2
s 1
f 23//3 24//3 25//3 26//3
f 24//3 27//4 28//4 25//3
f 27//4 29//4 30//4 28//4
f 29//4 31//5 32//5 30//4
f 31//5 33//6 34//6 32//5
f 33//6 35//7 36//7 34//6
f 35//7 37//8 38//8 36//7
f 37//8 23//3 26//3 38//8
f 39//9 40//9 41//9 42//9
f 40//9 43//10 44//10 41//9
f 43//10 45//10 46//10 44//10
f 45//10 47//11 48//11 46//10
f 47//11 49//12 50//12 48//11
f 49//12 51//13 52//13 50//12
f 51//13 53//14 54//14 52//13
f 53//14 39//9 42//9 54//14
f 55//15 56//15 57//15 58//15
f 56//15 59//16 60//16 57//15
f 59//16 61//16 62//16 60//16
f 61//16 63//17 64//17 62//16
f 63//17 65//18 66//18 64//17
f 65//18 67//19 68//19 66//18
f 67//19 69//20 70//20 68//19
f 69//20 55//15 58//15 70//20
f 71//21 72//22 73//22 74//21
f 72//22 75//23 76//23 73//22
f 75//23 71//21 74//21 76//23
f 77//24 78//25 79//25 80//24
f 78//25 81//26 82//26 79//25
f 81//26 77//24 80//24 82//26
f 83//27 84//28 85//28 86//27
f 84//28 87//29 88//29 85//28
f 87//29 83//27 86//27 88//29
