# Blender v2.75 (sub 0) OBJ File: '8.obj'
# www.blender.org
mtllib alphabet.mtl
o I
v -0.049000 -0.000000 0.060000
v -0.049000 0.682000 0.060000
v 0.049000 0.682000 0.060000
v 0.049000 -0.000000 0.060000
v -0.049000 0.000000 -0.060000
v -0.049000 0.682000 -0.060000
v 0.049000 0.682000 -0.060000
v 0.049000 0.000000 -0.060000
v -0.049000 0.000000 -0.060000
v -0.059000 -0.010000 -0.050000
v -0.049000 0.682000 -0.060000
v -0.059000 0.692000 -0.050000
v 0.049000 0.682000 -0.060000
v 0.059000 0.692000 -0.050000
v 0.049000 0.000000 -0.060000
v 0.059000 -0.010000 -0.050000
v -0.059000 -0.010000 -0.050000
v -0.059000 -0.010000 0.050000
v -0.059000 0.692000 -0.050000
v -0.059000 0.692000 0.050000
v 0.059000 0.692000 -0.050000
v 0.059000 0.692000 0.050000
v 0.059000 -0.010000 -0.050000
v 0.059000 -0.010000 0.050000
v -0.059000 -0.010000 0.050000
v -0.049000 -0.000000 0.060000
v -0.059000 0.692000 0.050000
v -0.049000 0.682000 0.060000
v 0.059000 0.692000 0.050000
v 0.049000 0.682000 0.060000
v 0.059000 -0.010000 0.050000
v 0.049000 -0.000000 0.060000
vn 0.000000 -0.000000 1.000000
vn 0.000000 0.000000 -1.000000
vn -0.408200 -0.408200 -0.816500
vn -0.408200 0.408200 -0.816500
vn 0.408200 0.408200 -0.816500
vn 0.408200 -0.408200 -0.816500
vn -0.707100 -0.707100 0.000000
vn -0.707100 0.707100 0.000000
vn 0.707100 0.707100 0.000000
vn 0.707100 -0.707100 0.000000
vn -0.408200 -0.408200 0.816500
vn -0.408200 0.408200 0.816500
vn 0.408200 0.408200 0.816500
vn 0.408200 -0.408200 0.816500
usemtl Gold
s off
f 1//1 3//1 2//1
f 1//1 4//1 3//1
f 7//2 5//2 6//2
f 8//2 5//2 7//2
s 1
f 10//3 12//4 11//4 9//3
f 12//4 14//5 13//5 11//4
f 14//5 16//6 15//6 13//5
f 16//6 10//3 9//3 15//6
f 18//7 20//8 19//8 17//7
f 20//8 22//9 21//9 19//8
f 22//9 24//10 23//10 21//9
f 24//10 18//7 17//7 23//10
f 26//11 28//12 27//12 25//11
f 28//12 30//13 29//13 27//12
f 30//13 32//14 31//14 29//13
f 32//14 26//11 25//11 31//14
