# Blender v2.75 (sub 0) OBJ File: '21.obj'
# www.blender.org
mtllib alphabet.mtl
o V
v -0.007000 -0.006000 0.060000
v -0.302000 0.682000 0.060000
v -0.204000 0.682000 0.060000
v 0.001000 0.203000 0.060000
v 0.205000 0.682000 0.060000
v 0.302000 0.682000 0.060000
v 0.013000 -0.006000 0.060000
v -0.007000 -0.006000 -0.060000
v -0.302000 0.682000 -0.060000
v -0.204000 0.682000 -0.060000
v 0.001000 0.203000 -0.060000
v 0.205000 0.682000 -0.060000
v 0.302000 0.682000 -0.060000
v 0.013000 -0.006000 -0.060000
v -0.007000 -0.006000 -0.060000
v -0.013593 -0.016000 -0.050000
v -0.302000 0.682000 -0.060000
v -0.317168 0.692000 -0.050000
v -0.204000 0.682000 -0.060000
v -0.197402 0.692000 -0.050000
v 0.001000 0.203000 -0.060000
v 0.000978 0.228468 -0.050000
v 0.205000 0.682000 -0.060000
v 0.198390 0.692000 -0.050000
v 0.302000 0.682000 -0.060000
v 0.317047 0.692000 -0.050000
v 0.013000 -0.006000 -0.060000
v 0.019646 -0.016000 -0.050000
v -0.013593 -0.016000 -0.050000
v -0.013593 -0.016000 0.050000
v -0.317168 0.692000 -0.050000
v -0.317168 0.692000 0.050000
v -0.197402 0.692000 -0.050000
v -0.197402 0.692000 0.050000
v 0.000978 0.228468 -0.050000
v 0.000978 0.228468 0.050000
v 0.198390 0.692000 -0.050000
v 0.198390 0.692000 0.050000
v 0.317047 0.692000 -0.050000
v 0.317047 0.692000 0.050000
v 0.019646 -0.016000 -0.050000
v 0.019646 -0.016000 0.050000
v -0.013593 -0.016000 0.050000
v -0.007000 -0.006000 0.060000
v -0.317168 0.692000 0.050000
v -0.302000 0.682000 0.060000
v -0.197402 0.692000 0.050000
v -0.204000 0.682000 0.060000
v 0.000978 0.228468 0.050000
v 0.001000 0.203000 0.060000
v 0.198390 0.692000 0.050000
v 0.205000 0.682000 0.060000
v 0.317047 0.692000 0.050000
v 0.302000 0.682000 0.060000
v 0.019646 -0.016000 0.050000
v 0.013000 -0.006000 0.060000
vn 0.000000 -0.000000 1.000000
vn 0.000000 0.000000 -1.000000
vn -0.352700 -0.535100 -0.767600
vn -0.402600 0.265400 -0.876000
vn 0.352900 0.534900 -0.767700
vn -0.000300 0.365500 -0.930800
vn -0.353200 0.534400 -0.767900
vn 0.403300 0.268000 -0.874900
vn 0.354200 -0.533000 -0.768400
vn -0.550400 -0.834900 0.000000
vn -0.834900 0.550400 0.000000
vn 0.550700 0.834700 0.000000
vn -0.000900 1.000000 0.000000
vn -0.551400 0.834200 0.000000
vn 0.832800 0.553500 0.000000
vn 0.553500 -0.832800 0.000000
vn -0.352700 -0.535100 0.767600
vn -0.402600 0.265400 0.876000
vn 0.352900 0.534900 0.767700
vn -0.000300 0.365500 0.930800
vn -0.353200 0.534400 0.767900
vn 0.403300 0.268000 0.874900
vn 0.354200 -0.533000 0.768400
usemtl Gold
s off
f 1//1 3//1 2//1
f 1//1 4//1 3//1
f 4//1 6//1 5//1
f 4//1 7//1 6//1
f 1//1 7//1 4//1
f 10//2 8//2 9//2
f 11//2 8//2 10//2
f 13//2 11//2 12//2
f 14//2 11//2 13//2
f 14//2 8//2 11//2
s 1
f 16//3 18//4 17//4 15//3
f 18//4 20//5 19//5 17//4
f 20//5 22//6 21//6 19//5
f 22//6 24//7 23//7 21//6
f 24//7 26//8 25//8 23//7
f 26//8 28//9 27//9 25//8
f 28//9 16//3 15//3 27//9
f 30//10 32//11 31//11 29//10
f 32//11 34//12 33//12 31//11
f 34//12 36//13 35//13 33//12
f 36//13 38//14 37//14 35//13
f 38//14 40//15 39//15 37//14
f 40//15 42//16 41//16 39//15
f 42//16 30//10 29//10 41//16
f 44//17 46//18 45//18 43//17
f 46//18 48//19 47//19 45//18
f 48//19 50//20 49//20 47//19
f 50//20 52//21 51//21 49//20
f 52//21 54//22 53//22 51//21
f 54//22 56//23 55//23 53//22
f 56//23 44//17 43//17 55//23
