# Blender v2.75 (sub 0) OBJ File: '23.obj'
# www.blender.org
mtllib alphabet.mtl
o X
v 0.352000 -0.000000 0.060000
v 0.234000 -0.000000 0.060000
v 0.002000 0.282000 0.060000
v -0.233000 -0.000000 0.060000
v -0.352000 -0.000000 0.060000
v -0.058000 0.353000 0.060000
v -0.331000 0.682000 0.060000
v -0.212000 0.682000 0.060000
v 0.002000 0.422000 0.060000
v 0.215000 0.682000 0.060000
v 0.333000 0.682000 0.060000
v 0.061000 0.353000 0.060000
v 0.352000 0.000000 -0.060000
v 0.234000 0.000000 -0.060000
v 0.002000 0.282000 -0.060000
v -0.233000 0.000000 -0.060000
v -0.352000 0.000000 -0.060000
v -0.058000 0.353000 -0.060000
v -0.331000 0.682000 -0.060000
v -0.212000 0.682000 -0.060000
v 0.002000 0.422000 -0.060000
v 0.215000 0.682000 -0.060000
v 0.333000 0.682000 -0.060000
v 0.061000 0.353000 -0.060000
v 0.352000 0.000000 -0.060000
v 0.373203 -0.010000 -0.050000
v 0.234000 0.000000 -0.060000
v 0.229278 -0.010000 -0.050000
v 0.002000 0.282000 -0.060000
v 0.001951 0.266320 -0.050000
v -0.233000 0.000000 -0.060000
v -0.228316 -0.010000 -0.050000
v -0.352000 0.000000 -0.060000
v -0.373343 -0.010000 -0.050000
v -0.058000 0.353000 -0.060000
v -0.071004 0.353012 -0.050000
v -0.331000 0.682000 -0.060000
v -0.352292 0.692000 -0.050000
v -0.212000 0.682000 -0.060000
v -0.207279 0.692000 -0.050000
v 0.002000 0.422000 -0.060000
v 0.001982 0.437758 -0.050000
v 0.215000 0.682000 -0.060000
v 0.210265 0.692000 -0.050000
v 0.333000 0.682000 -0.060000
v 0.354243 0.692000 -0.050000
v 0.061000 0.353000 -0.060000
v 0.073967 0.352991 -0.050000
v 0.373203 -0.010000 -0.050000
v 0.373203 -0.010000 0.050000
v 0.229278 -0.010000 -0.050000
v 0.229278 -0.010000 0.050000
v 0.001951 0.266320 -0.050000
v 0.001951 0.266320 0.050000
v -0.228316 -0.010000 -0.050000
v -0.228316 -0.010000 0.050000
v -0.373343 -0.010000 -0.050000
v -0.373343 -0.010000 0.050000
v -0.071004 0.353012 -0.050000
v -0.071004 0.353012 0.050000
v -0.352292 0.692000 -0.050000
v -0.352292 0.692000 0.050000
v -0.207279 0.692000 -0.050000
v -0.207279 0.692000 0.050000
v 0.001982 0.437758 -0.050000
v 0.001982 0.437758 0.050000
v 0.210265 0.692000 -0.050000
v 0.210265 0.692000 0.050000
v 0.354243 0.692000 -0.050000
v 0.354243 0.692000 0.050000
v 0.073967 0.352991 -0.050000
v 0.073967 0.352991 0.050000
v 0.373203 -0.010000 0.050000
v 0.352000 -0.000000 0.060000
v 0.229278 -0.010000 0.050000
v 0.234000 -0.000000 0.060000
v 0.001951 0.266320 0.050000
v 0.002000 0.282000 0.060000
v -0.228316 -0.010000 0.050000
v -0.233000 -0.000000 0.060000
v -0.373343 -0.010000 0.050000
v -0.352000 -0.000000 0.060000
v -0.071004 0.353012 0.050000
v -0.058000 0.353000 0.060000
v -0.352292 0.692000 0.050000
v -0.331000 0.682000 0.060000
v -0.207279 0.692000 0.050000
v -0.212000 0.682000 0.060000
v 0.001982 0.437758 0.050000
v 0.002000 0.422000 0.060000
v 0.210265 0.692000 0.050000
v 0.215000 0.682000 0.060000
v 0.354243 0.692000 0.050000
v 0.333000 0.682000 0.060000
v 0.073967 0.352991 0.050000
v 0.061000 0.353000 0.060000
vn 0.000000 -0.000000 1.000000
vn 0.000000 0.000000 -1.000000
vn 0.354900 -0.167400 -0.919800
vn -0.286400 -0.606500 -0.741700
vn -0.001700 -0.537700 -0.843100
vn 0.284700 -0.607900 -0.741200
vn -0.353700 -0.165700 -0.920600
vn -0.609600 0.000500 -0.792700
vn -0.354100 0.166300 -0.920300
vn 0.286300 0.606500 -0.741700
vn -0.000600 0.535800 -0.844300
vn -0.286900 0.606000 -0.741900
vn 0.354500 0.166900 -0.920000
vn 0.610600 -0.000400 -0.791900
vn 0.904400 -0.426600 0.000000
vn -0.427000 -0.904200 0.000000
vn -0.003100 -1.000000 0.000000
vn 0.424100 -0.905600 0.000000
vn -0.905500 -0.424300 0.000000
vn -1.000000 0.000900 0.000000
vn -0.905100 0.425100 0.000000
vn 0.426900 0.904300 0.000000
vn -0.001100 1.000000 0.000000
vn -0.427900 0.903800 0.000000
vn 0.904800 0.425900 0.000000
vn 1.000000 -0.000700 0.000000
vn 0.354900 -0.167400 0.919800
vn -0.286400 -0.606500 0.741700
vn -0.001700 -0.537700 0.843100
vn 0.284700 -0.607900 0.741200
vn -0.353700 -0.165700 0.920600
vn -0.609600 0.000500 0.792700
vn -0.354100 0.166300 0.920300
vn 0.286300 0.606500 0.741700
vn -0.000600 0.535800 0.844300
vn -0.286900 0.606000 0.741900
vn 0.354500 0.166900 0.920000
vn 0.610600 -0.000400 0.791900
usemtl Gold
s off
f 6//1 8//1 7//1
f 6//1 9//1 8//1
f 9//1 11//1 10//1
f 9//1 12//1 11//1
f 6//1 12//1 9//1
f 5//1 12//1 6//1
f 5//1 3//1 12//1
f 3//1 1//1 12//1
f 5//1 4//1 3//1
f 2//1 1//1 3//1
f 20//2 18//2 19//2
f 21//2 18//2 20//2
f 23//2 21//2 22//2
f 24//2 21//2 23//2
f 24//2 18//2 21//2
f 24//2 17//2 18//2
f 15//2 17//2 24//2
f 13//2 15//2 24//2
f 16//2 17//2 15//2
f 13//2 14//2 15//2
s 1
f 26//3 28//4 27//4 25//3
f 28//4 30//5 29//5 27//4
f 30//5 32//6 31//6 29//5
f 32//6 34//7 33//7 31//6
f 34//7 36//8 35//8 33//7
f 36//8 38//9 37//9 35//8
f 38//9 40//10 39//10 37//9
f 40//10 42//11 41//11 39//10
f 42//11 44//12 43//12 41//11
f 44//12 46//13 45//13 43//12
f 46//13 48//14 47//14 45//13
f 48//14 26//3 25//3 47//14
f 50//15 52//16 51//16 49//15
f 52//16 54//17 53//17 51//16
f 54//17 56//18 55//18 53//17
f 56//18 58//19 57//19 55//18
f 58//19 60//20 59//20 57//19
f 60//20 62//21 61//21 59//20
f 62//21 64//22 63//22 61//21
f 64//22 66//23 65//23 63//22
f 66//23 68//24 67//24 65//23
f 68//24 70//25 69//25 67//24
f 70//25 72//26 71//26 69//25
f 72//26 50//15 49//15 71//26
f 74//27 76//28 75//28 73//27
f 76//28 78//29 77//29 75//28
f 78//29 80//30 79//30 77//29
f 80//30 82//31 81//31 79//30
f 82//31 84//32 83//32 81//31
f 84//32 86//33 85//33 83//32
f 86//33 88//34 87//34 85//33
f 88//34 90//35 89//35 87//34
f 90//35 92//36 91//36 89//35
f 92//36 94//37 93//37 91//36
f 94//37 96//38 95//38 93//37
f 96//38 74//27 73//27 95//38
